<mxfile host="65bd71144e">
    <diagram id="O2SWOLE4WjKZwADt5cVJ" name="Page-1">
        <mxGraphModel dx="1216" dy="779" grid="1" gridSize="10" guides="1" tooltips="1" connect="1" arrows="1" fold="1" page="1" pageScale="1" pageWidth="850" pageHeight="1100" math="0" shadow="0">
            <root>
                <mxCell id="0"/>
                <mxCell id="1" parent="0"/>
                <mxCell id="2" value="" style="rounded=0;whiteSpace=wrap;html=1;strokeColor=#99CCFF;" parent="1" vertex="1">
                    <mxGeometry width="840" height="1090" as="geometry"/>
                </mxCell>
                <mxCell id="3" value="" style="rounded=0;whiteSpace=wrap;html=1;fillColor=#0050ef;fontColor=#ffffff;strokeColor=#001DBC;" parent="1" vertex="1">
                    <mxGeometry width="850" height="130" as="geometry"/>
                </mxCell>
                <mxCell id="4" value="&lt;font color=&quot;#ff8000&quot; style=&quot;font-size: 32px;&quot;&gt;LOGO&lt;/font&gt;" style="ellipse;whiteSpace=wrap;html=1;fillColor=#FFFFFF;fontColor=#ffffff;strokeColor=#A50040;" parent="1" vertex="1">
                    <mxGeometry x="30" y="15" width="220" height="95" as="geometry"/>
                </mxCell>
                <mxCell id="7" value="Loading..." style="html=1;shadow=0;dashed=0;shape=mxgraph.bootstrap.rrect;rSize=5;strokeColor=none;html=1;whiteSpace=wrap;fillColor=#59AFFD;fontColor=#ffffff;align=right;spacing=10;fontSize=32;" parent="1" vertex="1">
                    <mxGeometry x="330" y="590" width="160" height="40" as="geometry"/>
                </mxCell>
                <mxCell id="10" value="" style="html=1;shadow=0;dashed=0;shape=mxgraph.bootstrap.rrect;rSize=5;strokeColor=none;fillColor=#f6f6f6;whiteSpace=wrap;fontSize=32;" parent="1" vertex="1">
                    <mxGeometry x="40" y="535.5" width="760" height="19" as="geometry"/>
                </mxCell>
                <mxCell id="11" value="" style="html=1;shadow=0;dashed=0;shape=mxgraph.bootstrap.leftButtonStriped;fillColor=#0085FC;fontColor=#FFFFFF;whiteSpace=wrap;fontSize=32;" parent="10" vertex="1">
                    <mxGeometry width="475" height="19" as="geometry"/>
                </mxCell>
            </root>
        </mxGraphModel>
    </diagram>
</mxfile>